<svg xmlns="http://www.w3.org/2000/svg" viewBox="0 0 64 64" fill="none">
  <defs>
    <linearGradient id="paguro-grad" x1="0%" y1="0%" x2="100%" y2="100%">
      <stop offset="0%" stop-color="#ee7224"></stop>
      <stop offset="40%" stop-color="#e72175"></stop>
      <stop offset="75%" stop-color="#c01c83"></stop>
      <stop offset="100%" stop-color="#0360ab"></stop>
    </linearGradient>
    <radialGradient id="paguro-glow" cx="35%" cy="35%" r="65%">
      <stop offset="0%" stop-color="#ff9a4a" stop-opacity=".95"></stop>
      <stop offset="50%" stop-color="#e72175" stop-opacity=".85"></stop>
      <stop offset="85%" stop-color="#0360ab" stop-opacity=".75"></stop>
      <stop offset="100%" stop-color="#0a0b0d" stop-opacity="0"></stop>
    </radialGradient>
  </defs>
  
  <path d="M 32 4 C 48 4 56 18 56 30 C 56 46 44 60 28 60 C 14 60 6 50 6 38 C 6 22 16 4 32 4 Z" fill="url(#paguro-glow)" stroke="url(#paguro-grad)" stroke-width="1.2" stroke-opacity=".7"></path>
  
  <path d="M 32 12 C 44 12 50 22 50 32 C 50 44 40 54 28 54 C 18 54 12 46 12 38 C 12 26 20 12 32 12 Z" fill="none" stroke="#ffffff" stroke-opacity=".15" stroke-width=".8"></path>
  <path d="M 32 20 C 40 20 44 28 44 34 C 44 42 36 48 28 48 C 22 48 18 42 18 38 C 18 30 24 20 32 20 Z" fill="none" stroke="#ffffff" stroke-opacity=".2" stroke-width=".8"></path>
  
  <circle cx="30" cy="34" r="3" fill="#ffffff" fill-opacity=".95"></circle>
</svg>