<?xml version="1.0"?>
<svg id="Capa_2" data-name="Capa 2" xmlns="http://www.w3.org/2000/svg" viewBox="0 0 86.19 86.37">
  <defs>
    
  </defs>
  <g id="Capa_1-2" data-name="Capa 1">
    <g>
      <g>
        <path class="cls-1" d="M8.8,78.67c-.86.83-2.17,1.25-3.93,1.25H1.97v6.3H0v-15.09h4.87c1.7,0,3,.41,3.89,1.23.89.82,1.33,1.88,1.33,3.18s-.43,2.3-1.29,3.13ZM7.3,77.57c.52-.48.78-1.15.78-2.04,0-1.86-1.07-2.79-3.2-2.79H1.97v5.54h2.9c1.1,0,1.91-.24,2.43-.71Z"></path>
        <path class="cls-1" d="M21.46,82.86h-6.58l-1.21,3.36h-2.08l5.46-15.01h2.27l5.44,15.01h-2.08l-1.21-3.36ZM20.9,81.25l-2.73-7.62-2.73,7.62h5.46Z"></path>
        <path class="cls-1" d="M38.57,75.49c-.42-.88-1.03-1.56-1.82-2.05-.79-.48-1.72-.73-2.77-.73s-2,.24-2.85.73c-.84.48-1.51,1.18-1.99,2.08-.48.9-.73,1.95-.73,3.13s.24,2.22.73,3.12c.48.9,1.15,1.58,1.99,2.07.84.48,1.79.73,2.85.73,1.47,0,2.69-.44,3.64-1.32.95-.88,1.51-2.07,1.67-3.57h-6.02v-1.6h8.12v1.52c-.12,1.24-.51,2.38-1.17,3.41-.66,1.03-1.54,1.85-2.62,2.45-1.08.6-2.29.9-3.62.9-1.4,0-2.68-.33-3.83-.99-1.16-.66-2.07-1.57-2.74-2.74-.67-1.17-1.01-2.49-1.01-3.96s.34-2.8,1.01-3.97c.67-1.18,1.58-2.09,2.74-2.75,1.15-.66,2.43-.99,3.83-.99,1.6,0,3.02.4,4.26,1.19,1.23.79,2.13,1.91,2.7,3.36h-2.36Z"></path>
        <path class="cls-1" d="M45.91,71.12v9.55c0,1.34.33,2.34.99,2.99.66.65,1.57.97,2.74.97s2.06-.32,2.72-.97c.66-.65.99-1.65.99-2.99v-9.55h1.97v9.53c0,1.26-.25,2.31-.76,3.17-.51.86-1.19,1.5-2.05,1.92-.86.42-1.82.63-2.89.63s-2.03-.21-2.89-.63c-.86-.42-1.54-1.06-2.04-1.92-.5-.86-.75-1.92-.75-3.17v-9.53h1.97Z"></path>
        <path class="cls-1" d="M66.55,86.21l-3.59-6.17h-2.38v6.17h-1.97v-15.09h4.87c1.14,0,2.1.2,2.89.58.79.39,1.38.92,1.77,1.58.39.66.58,1.42.58,2.27,0,1.04-.3,1.96-.9,2.75-.6.79-1.5,1.32-2.7,1.58l3.79,6.32h-2.36ZM60.57,78.46h2.9c1.07,0,1.87-.26,2.4-.79.53-.53.8-1.23.8-2.11s-.26-1.59-.79-2.08c-.53-.49-1.33-.74-2.41-.74h-2.9v5.72Z"></path>
        <path class="cls-1" d="M74.78,85.38c-1.16-.66-2.07-1.57-2.74-2.75-.67-1.18-1.01-2.5-1.01-3.97s.34-2.8,1.01-3.97c.67-1.18,1.58-2.09,2.74-2.75,1.15-.66,2.43-.99,3.83-.99s2.7.33,3.85.99c1.15.66,2.06,1.57,2.73,2.74.66,1.17,1,2.5,1,3.99s-.33,2.82-1,3.98c-.66,1.17-1.57,2.08-2.73,2.74-1.16.66-2.44.99-3.85.99s-2.68-.33-3.83-.99ZM81.46,83.92c.84-.49,1.51-1.19,1.99-2.1.48-.91.73-1.96.73-3.16s-.24-2.27-.73-3.17c-.48-.9-1.14-1.6-1.98-2.09-.84-.49-1.79-.74-2.86-.74s-2.02.25-2.86.74c-.84.49-1.5,1.19-1.98,2.09-.48.9-.73,1.96-.73,3.17s.24,2.25.73,3.16c.48.91,1.15,1.61,1.99,2.1.84.49,1.79.74,2.85.74s2-.25,2.85-.74Z"></path>
      </g>
      <g>
        <path class="cls-3" d="M71.83,11.85c.01.59-.06,1.5-.23,2.69-.63,4.41-2.42,12.52-4.48,20.43-1.3-10.7-8.1-20.06-18.01-26.12-2.93-1.78-6.12-3.29-9.53-4.44C47.58,1.19,55.45-.23,59.63.03c6.72.41,12,5.28,12.2,11.82Z"></path>
        <path class="cls-2" d="M59.51,56.46c-7.79,2.85-22.91-.41-27.94-2.14-8.96-3.09-14.68-8.74-16.55-16.2,1.83-.19,3.68-.29,5.58-.29,16.64,0,31.16,7.5,38.9,18.64Z"></path>
        <path class="cls-4" d="M67.11,34.96c-1.12,4.29-2.31,8.53-3.45,12.1-5.49-15.39-22.68-26.63-43.04-26.63-.91,0-1.83.03-2.74.08,1.08-1.72,2.37-3.31,3.83-4.81,4.81-4.97,11.38-8.7,17.86-11.29,3.41,1.15,6.6,2.66,9.53,4.44,9.9,6.06,16.7,15.42,18.01,26.12Z"></path>
        <path class="cls-5" d="M63.65,47.06c-1.67,5.27-3.21,9.06-4.14,9.4-7.75-11.14-22.27-18.64-38.9-18.64-1.9,0-3.76.1-5.58.29-.5-2-.72-4.14-.65-6.4.13-4.17,1.43-7.89,3.51-11.22,21.54-1.06,40.05,10.49,45.77,26.57Z"></path>
      </g>
    </g>
  </g>
</svg>